<svg width="168" height="48" viewBox="0 0 168 48" fill="none" xmlns="http://www.w3.org/2000/svg">
<path d="M1.98 32.36V15.44L6.12 11.3H18.648L22.716 15.368V19.22H17.82V17.168L16.128 15.476H8.712L6.876 17.312V30.488L8.712 32.324H16.2L17.964 30.56V26.636H12.564V22.46H22.716V32.36L18.576 36.5H6.12L1.98 32.36ZM33.3726 11.3H37.8366L47.0526 36.5H42.0846L40.0326 30.92H31.1766L29.1246 36.5H24.1566L33.3726 11.3ZM38.9526 26.888L35.6046 17.312H35.5326L32.2926 26.888H38.9526ZM49.59 11.3H54.126L61.614 27.572H61.686L69.21 11.3H73.746V36.5H69.03V21.164H68.958L63.162 32.972H60.138L54.378 21.164H54.306V36.5H49.59V11.3ZM78.4181 11.3H96.6341V15.44H83.3141V21.812H95.5901V25.88H83.3141V32.36H96.6341V36.5H78.4181V11.3Z" fill="white"/>
<path d="M100.25 11.3H105.146V32.36H117.746V36.5H100.25V11.3ZM119.543 32.36V15.44L123.683 11.3H136.643L140.783 15.44V32.36L136.643 36.5H123.683L119.543 32.36ZM134.051 32.324L135.887 30.488V17.312L134.051 15.476H126.275L124.439 17.312V30.488L126.275 32.324H134.051ZM144.75 32.36V15.44L148.89 11.3H161.418L165.486 15.368V19.22H160.59V17.168L158.898 15.476H151.482L149.646 17.312V30.488L151.482 32.324H158.97L160.734 30.56V26.636H155.334V22.46H165.486V32.36L161.346 36.5H148.89L144.75 32.36Z" fill="#895BF2"/>
</svg>
